<mxfile host="app.diagrams.net" modified="2024-04-23T13:26:41.821Z" agent="Mozilla/5.0 (Windows NT 10.0; Win64; x64) AppleWebKit/537.36 (KHTML, like Gecko) Chrome/124.0.0.0 Safari/537.36" etag="db8FEFDGZrQnDEOK5F9D" version="24.2.5" type="github">
  <diagram name="第 1 页" id="g8r5MExnXnyAFFRRyynl">
    <mxGraphModel dx="1221" dy="670" grid="1" gridSize="10" guides="1" tooltips="1" connect="1" arrows="1" fold="1" page="1" pageScale="1" pageWidth="827" pageHeight="1169" math="0" shadow="0">
      <root>
        <mxCell id="0" />
        <mxCell id="1" parent="0" />
        <mxCell id="KBwJs5ZIUhxDB4R8xKA5-1" value="后台管理员" style="shape=umlActor;verticalLabelPosition=bottom;verticalAlign=top;html=1;strokeWidth=2;" vertex="1" parent="1">
          <mxGeometry x="79" y="532.25" width="30" height="60" as="geometry" />
        </mxCell>
        <mxCell id="KBwJs5ZIUhxDB4R8xKA5-2" value="博客管理" style="ellipse;whiteSpace=wrap;html=1;strokeWidth=2;" vertex="1" parent="1">
          <mxGeometry x="150" y="540" width="120" height="40" as="geometry" />
        </mxCell>
        <mxCell id="KBwJs5ZIUhxDB4R8xKA5-3" value="添加博客" style="ellipse;whiteSpace=wrap;html=1;strokeWidth=2;" vertex="1" parent="1">
          <mxGeometry x="380.5" y="450" width="120" height="40" as="geometry" />
        </mxCell>
        <mxCell id="KBwJs5ZIUhxDB4R8xKA5-4" value="修改博客" style="ellipse;whiteSpace=wrap;html=1;strokeWidth=2;" vertex="1" parent="1">
          <mxGeometry x="380.5" y="510" width="120" height="40" as="geometry" />
        </mxCell>
        <mxCell id="KBwJs5ZIUhxDB4R8xKA5-5" value="删除博客" style="ellipse;whiteSpace=wrap;html=1;strokeWidth=2;" vertex="1" parent="1">
          <mxGeometry x="380" y="572.25" width="120" height="40" as="geometry" />
        </mxCell>
        <mxCell id="KBwJs5ZIUhxDB4R8xKA5-7" value="查看博客" style="ellipse;whiteSpace=wrap;html=1;strokeWidth=2;" vertex="1" parent="1">
          <mxGeometry x="380.5" y="630" width="120" height="40" as="geometry" />
        </mxCell>
        <mxCell id="KBwJs5ZIUhxDB4R8xKA5-8" value="《包含》" style="endArrow=open;endSize=12;dashed=1;html=1;rounded=0;entryX=0;entryY=0.5;entryDx=0;entryDy=0;strokeWidth=2;exitX=1;exitY=0.5;exitDx=0;exitDy=0;" edge="1" parent="1" source="KBwJs5ZIUhxDB4R8xKA5-2" target="KBwJs5ZIUhxDB4R8xKA5-3">
          <mxGeometry width="160" relative="1" as="geometry">
            <mxPoint x="240" y="542" as="sourcePoint" />
            <mxPoint x="409" y="431" as="targetPoint" />
          </mxGeometry>
        </mxCell>
        <mxCell id="KBwJs5ZIUhxDB4R8xKA5-9" value="《包含》" style="endArrow=open;endSize=12;dashed=1;html=1;rounded=0;entryX=0;entryY=0.5;entryDx=0;entryDy=0;strokeWidth=2;" edge="1" parent="1" target="KBwJs5ZIUhxDB4R8xKA5-4">
          <mxGeometry width="160" relative="1" as="geometry">
            <mxPoint x="260" y="562" as="sourcePoint" />
            <mxPoint x="419" y="441" as="targetPoint" />
          </mxGeometry>
        </mxCell>
        <mxCell id="KBwJs5ZIUhxDB4R8xKA5-10" value="《包含》" style="endArrow=open;endSize=12;dashed=1;html=1;rounded=0;entryX=0;entryY=0.5;entryDx=0;entryDy=0;exitX=1;exitY=0.5;exitDx=0;exitDy=0;strokeWidth=2;" edge="1" parent="1" source="KBwJs5ZIUhxDB4R8xKA5-2" target="KBwJs5ZIUhxDB4R8xKA5-5">
          <mxGeometry width="160" relative="1" as="geometry">
            <mxPoint x="319" y="590" as="sourcePoint" />
            <mxPoint x="429" y="451" as="targetPoint" />
          </mxGeometry>
        </mxCell>
        <mxCell id="KBwJs5ZIUhxDB4R8xKA5-11" value="《包含》" style="endArrow=open;endSize=12;dashed=1;html=1;rounded=0;exitX=1;exitY=0.5;exitDx=0;exitDy=0;entryX=0;entryY=0.5;entryDx=0;entryDy=0;strokeWidth=2;" edge="1" parent="1" source="KBwJs5ZIUhxDB4R8xKA5-2" target="KBwJs5ZIUhxDB4R8xKA5-7">
          <mxGeometry width="160" relative="1" as="geometry">
            <mxPoint x="319" y="600" as="sourcePoint" />
            <mxPoint x="439" y="461" as="targetPoint" />
          </mxGeometry>
        </mxCell>
        <mxCell id="KBwJs5ZIUhxDB4R8xKA5-12" value="添加标签" style="ellipse;whiteSpace=wrap;html=1;strokeWidth=2;" vertex="1" parent="1">
          <mxGeometry x="540" y="480" width="120" height="40" as="geometry" />
        </mxCell>
        <mxCell id="KBwJs5ZIUhxDB4R8xKA5-13" value="添加分类" style="ellipse;whiteSpace=wrap;html=1;strokeWidth=2;" vertex="1" parent="1">
          <mxGeometry x="540" y="420" width="120" height="40" as="geometry" />
        </mxCell>
        <mxCell id="KBwJs5ZIUhxDB4R8xKA5-14" value="《扩展》" style="endArrow=open;endSize=12;dashed=1;html=1;rounded=0;exitX=0;exitY=0.5;exitDx=0;exitDy=0;entryX=1;entryY=0.5;entryDx=0;entryDy=0;strokeWidth=2;" edge="1" parent="1" source="KBwJs5ZIUhxDB4R8xKA5-13" target="KBwJs5ZIUhxDB4R8xKA5-3">
          <mxGeometry x="-0.0019" width="160" relative="1" as="geometry">
            <mxPoint x="297.5" y="414" as="sourcePoint" />
            <mxPoint x="496.5" y="450" as="targetPoint" />
            <mxPoint as="offset" />
          </mxGeometry>
        </mxCell>
        <mxCell id="KBwJs5ZIUhxDB4R8xKA5-15" value="《扩展》" style="endArrow=open;endSize=12;dashed=1;html=1;rounded=0;exitX=0;exitY=0.5;exitDx=0;exitDy=0;entryX=1;entryY=0.5;entryDx=0;entryDy=0;strokeWidth=2;" edge="1" parent="1" source="KBwJs5ZIUhxDB4R8xKA5-12" target="KBwJs5ZIUhxDB4R8xKA5-3">
          <mxGeometry width="160" relative="1" as="geometry">
            <mxPoint x="615.5" y="510" as="sourcePoint" />
            <mxPoint x="475.5" y="520" as="targetPoint" />
          </mxGeometry>
        </mxCell>
        <mxCell id="KBwJs5ZIUhxDB4R8xKA5-16" value="" style="endArrow=classic;html=1;rounded=0;entryX=0;entryY=0.5;entryDx=0;entryDy=0;exitX=0.5;exitY=0.5;exitDx=0;exitDy=0;exitPerimeter=0;strokeWidth=2;" edge="1" parent="1" source="KBwJs5ZIUhxDB4R8xKA5-1" target="KBwJs5ZIUhxDB4R8xKA5-2">
          <mxGeometry width="50" height="50" relative="1" as="geometry">
            <mxPoint x="114" y="552.25" as="sourcePoint" />
            <mxPoint x="179" y="432.25" as="targetPoint" />
          </mxGeometry>
        </mxCell>
      </root>
    </mxGraphModel>
  </diagram>
</mxfile>
